<?xml version="1.0" encoding="UTF-8"?>
<svg width="600px" height="270px" viewBox="0 0 600 270" version="1.1" xmlns="http://www.w3.org/2000/svg" xmlns:xlink="http://www.w3.org/1999/xlink">
    <!-- Generator: Sketch 52.5 (67469) - http://www.bohemiancoding.com/sketch -->
    <title>Artboard</title>
    <desc>Created with Sketch.</desc>
    <g id="Artboard" stroke="none" stroke-width="1" fill="none" fill-rule="evenodd">
        <g id="Another" transform="translate(103.000000, 89.000000)" fill="#C2C2C2">
            <path d="M186.501603,38.3536009 C186.279684,36.0551674 186.150487,33.7438455 185.815052,31.4609442 C185.216791,27.3905193 183.935048,23.5342403 181.631659,20.0348712 C175.273393,10.3751717 163.106373,10.5291717 156.515962,15.1366137 C152.438244,17.9872661 150.073836,21.9578884 148.648578,26.5160901 C146.668694,32.849588 146.464501,39.3037082 147.540007,45.7964936 C148.257919,50.1306352 149.69954,54.2212189 152.404837,57.8243562 C158.508459,65.9536395 169.067504,66.1819957 175.481676,62.5943906 C179.214073,60.5064678 181.715859,57.3659914 183.4261,53.5896867 C185.622791,48.7373648 186.329454,43.6110815 186.501603,38.3536009 Z M163.84474,77 C162.365621,76.7894893 160.874572,76.6371416 159.409089,76.3585536 C148.733801,74.3271416 140.739266,68.6859828 135.489571,59.4582103 C131.312314,52.1151202 129.967165,44.1662747 130.400436,35.8747296 C130.733144,29.502897 132.231693,23.4182446 135.3931,17.7889828 C140.833692,8.10185408 149.176275,2.31066094 160.411303,0.47455794 C161.550896,0.288171674 162.700033,0.156974249 163.84474,0 L169.298968,0 C171.116589,0.269665236 172.957391,0.438206009 174.747742,0.825519313 C185.439733,3.13915451 193.267232,9.10186266 198.287167,18.4994979 C202.614756,26.6013519 203.715829,35.2666609 202.721455,44.239309 C201.939114,51.299515 199.530731,57.8002318 195.135987,63.5107897 C189.305758,71.0868627 181.448942,75.383 171.817798,76.6794421 C170.979211,76.792133 170.138919,76.893588 169.298968,77 L163.84474,77 Z" id="Fill-1"></path>
            <path d="M36.2967766,21.9001946 C36.2232824,21.902505 36.1497882,21.9048154 36.076294,21.9071257 C32.9878041,30.9555902 29.8993141,40.0037245 26.788984,49.1155595 L45.6971013,49.1155595 C42.5406639,39.9776502 39.4185469,30.9387573 36.2967766,21.9001946 Z M0,76.7824401 C1.20780097,73.6993941 2.4374422,70.6236093 3.62028288,67.5316518 C11.7476325,46.286326 19.8680487,25.0383598 27.9697446,3.78412256 C28.2054807,3.16625915 28.4859374,2.95700413 29.1893324,2.96195496 C34.1283509,2.99595064 39.0677161,2.99529053 44.0063879,2.9616249 C44.7077029,2.95667407 44.9995997,3.16361871 45.2318691,3.78280234 C50.5993726,18.0890467 55.9890632,32.3873698 61.3766736,46.686683 C65.0489571,56.4338744 68.725054,66.1797455 72.3973375,75.9269369 C72.5127789,76.2338882 72.6067266,76.5477708 72.7384615,76.9405365 C72.4209111,76.9570393 72.1754682,76.9804732 71.9300253,76.9808033 C66.644336,76.9834437 61.3583001,76.9712317 56.0726108,76.9999465 C55.4128963,77.0035771 55.132093,76.8233669 54.9306773,76.2170554 C53.3994325,71.6055236 51.8175737,67.0091743 50.2762755,62.400283 C50.0928867,61.8523913 49.8581905,61.6197023 49.2012494,61.6213526 C40.4783194,61.6447865 31.7553895,61.6437963 23.0324595,61.6193723 C22.4008253,61.6173919 22.1928229,61.8560219 22.0281542,62.3659572 C20.5260298,67.0144552 19.0020651,71.6563521 17.4878071,76.3008895 C17.3664724,76.6728617 17.2957515,76.9986262 16.7216647,76.9956557 C11.147892,76.9629803 5.57377268,76.9593497 0,76.9474677 L0,76.7824401 Z" id="Fill-4"></path>
            <path d="M319.211829,45.0277884 L342.188814,45.0277884 C341.734312,39.5672943 336.639032,35.0028341 331.109026,34.9841394 C323.589967,34.9585572 319.850908,40.1579814 319.211829,45.0277884 Z M329.301774,77 C327.360946,76.7513932 325.390975,76.6290577 323.484148,76.2328611 C312.97405,74.0491882 305.62673,66.7569408 303.714005,56.59522 C302.507666,50.1849036 302.913596,43.8742923 305.80402,37.8900184 C309.528855,30.178288 316.002559,25.7069734 324.760917,24.210413 C330.934165,23.155638 336.984939,23.6636748 342.725196,26.174669 C350.118659,29.4081973 354.54988,34.9683965 356.61214,42.3291912 C357.736946,46.3456012 357.681781,50.4377741 357.58186,54.6319478 L319.161175,54.6319478 C319.442897,57.1744279 320.380004,59.3512133 321.843778,61.3626981 C326.284366,67.4660277 337.249661,67.1514975 341.180583,60.3413768 C341.323525,60.0940819 341.728761,59.8051339 341.991053,59.8218607 C346.74563,60.1311433 351.497431,60.4840469 356.389746,60.8376064 C356.276641,61.2006773 356.20066,61.5040563 356.088595,61.7949722 C353.466362,68.5968935 348.403348,73.0167156 341.229502,75.3584736 C338.455999,76.263691 335.595065,76.753689 332.661619,76.8684811 C332.292119,76.8829121 331.925395,76.9550671 331.556936,77 L329.301774,77 Z" id="Fill-6"></path>
            <path d="M263.673513,77 L248.523077,77 L248.523077,2.96153846 L263.659068,2.96153846 L263.659068,31.9710658 C263.720287,31.9905754 263.781506,32.0094237 263.84307,32.0286027 C264.014347,31.8308608 264.195597,31.6400631 264.355525,31.4340544 C268.312777,26.3420356 273.68633,24.4105803 280.146357,24.8450833 C282.976552,25.0355504 285.700129,25.5930635 288.23145,26.8496172 C293.148265,29.2906382 295.731175,33.3304585 296.65325,38.4439709 C296.891593,39.7656671 296.994428,41.1260518 296.997524,42.468911 C297.02435,53.6552154 297.013,64.8411891 297.013,76.0278242 L297.013,76.9854504 L281.755947,76.9854504 L281.755947,75.9306066 C281.755259,65.9016544 281.757322,55.8723714 281.751819,45.8434191 C281.750788,43.6232871 281.342543,41.4983886 279.886002,39.6958953 C276.517557,35.5284356 269.369328,35.7493245 266.090993,40.1069206 C264.324227,42.4560148 263.68555,45.138757 263.680391,47.9775765 C263.662507,57.3180696 263.673513,66.658232 263.673513,75.9983944 L263.673513,77 Z" id="Fill-8"></path>
            <path d="M236.4,65.0618728 L236.4,76.3691586 C235.376683,76.5019085 234.342563,76.6559115 233.304314,76.7677354 C229.91793,77.1326342 226.539489,77.1195554 223.200761,76.3505213 C218.664297,75.3061783 216.080111,72.2264453 215.487279,67.1744277 C215.364011,66.1228913 215.301424,65.0576222 215.299518,63.9985655 C215.284903,55.4185387 215.280138,46.8385119 215.308731,38.2584851 C215.31159,37.4482528 215.064101,37.25861 214.322585,37.2814979 C212.608901,37.3347941 210.892358,37.2985004 209.123077,37.2985004 L209.123077,26.1255994 C209.7337,26.1255994 210.331932,26.1259263 210.930165,26.1255994 C212.121229,26.1249454 213.313564,26.0850551 214.502404,26.1376973 C215.156869,26.1664707 215.304601,25.9117608 215.301424,25.2928061 C215.281726,21.1527086 215.291575,17.0122841 215.291575,12.8721865 L215.291575,11.8461538 L229.304448,11.8461538 C229.318109,12.1610262 229.344161,12.4781874 229.344479,12.7953485 C229.346702,16.9354461 229.359728,21.0758706 229.331135,25.2156411 C229.326052,25.9186272 229.499517,26.1602582 230.215935,26.1429288 C232.247955,26.0935563 234.281882,26.1255994 236.37649,26.1255994 L236.37649,37.2978465 L234.435967,37.2978465 C233.059683,37.2981734 231.681493,37.3413335 230.308068,37.281171 C229.556068,37.2488009 229.324463,37.4636204 229.328593,38.2650245 C229.360364,44.6654675 229.346385,51.0665644 229.346067,57.4673344 C229.346067,59.0472547 229.340031,60.6271751 229.344161,62.2070954 C229.348609,64.0028161 230.001486,64.8794234 231.738362,65.0337534 C233.251575,65.1681381 234.784804,65.0618728 236.4,65.0618728" id="Fill-10"></path>
            <path d="M377.573147,25.212429 L377.573147,33.7631542 C380.896307,26.6732313 386.194369,23.1238801 394,23.7664845 L394,38.3420909 C392.69939,38.3420909 391.42244,38.3309474 390.145489,38.3444546 C387.566286,38.3721444 385.160585,39.0387241 383.039125,40.5707769 C379.83492,42.8855712 378.526423,46.2471725 378.206693,50.1139427 C378.141629,50.8970219 378.157074,51.6875301 378.156745,52.4746615 C378.153459,60.3230129 378.154116,68.1713644 378.153788,76.0193782 L378.153788,77 L363.692308,77 L363.692308,25.212429 L377.573147,25.212429 Z" id="Fill-12"></path>
            <path d="M124.258313,77 L108.996025,77 L108.996025,75.9010922 C108.995682,65.6929946 108.99362,55.4848971 108.996025,45.2767995 C108.996713,43.1285968 108.55505,41.1110074 107.381636,39.2550818 C104.894576,35.3211538 96.6768971,33.9346939 92.9521498,39.8872237 C91.5316108,42.1572649 90.9411231,44.6483701 90.9380297,47.2812263 C90.9263437,56.8426692 90.9332178,66.4037747 90.9328741,75.9655551 L90.9328741,76.9935875 L75.7692308,76.9935875 L75.7692308,25.1903443 L90.2557723,25.1903443 L90.2557723,31.1074363 C90.3234825,31.132074 90.390849,31.1563742 90.4585591,31.1806744 C90.64966,30.9602853 90.8483223,30.7456338 91.0315179,30.5184947 C95.1539336,25.4066833 100.616117,23.3641188 107.134511,23.7346965 C110.197967,23.9091852 113.148344,24.5295146 115.851939,26.0020376 C120.552469,28.5616558 123.048466,32.6285597 123.903264,37.7228209 C124.166887,39.2938945 124.239752,40.9101935 124.243877,42.5065799 C124.271717,53.6424715 124.258313,64.7787006 124.258313,75.9149298 L124.258313,77 Z" id="Fill-14"></path>
        </g>
    </g>
</svg>